<?xml version="1.0" encoding="utf-8"?>
<svg width="280px" height="280px" viewBox="0 0 280.036 280" version="1.1" xmlns="http://www.w3.org/2000/svg" xmlns:bx="https://boxy-svg.com">
  <title>logo</title>
  <path d="M 260.051 140.008 C 260.051 206.293 206.317 260.033 140.026 260.033 C 73.739 260.033 20.003 206.293 20.003 140.008 C 20.003 73.719 73.739 19.985 140.026 19.985 C 206.317 19.985 260.051 73.719 260.051 140.008 Z" style="fill: rgba(216, 216, 216, 0); stroke-width: 3px; stroke-miterlimit: 9; mix-blend-mode: darken; stroke-opacity: 0.2; paint-order: fill; stroke: rgb(10, 10, 10);" bx:origin="0.449985 0.524895"/>
  <path d="M 69.274 106.812 C 69.813 104.182 72.154 102.18 74.911 102.18 L 97.728 102.18 C 100.776 102.18 102.135 100.809 103.947 98.147 L 114.004 79.76 C 114.951 78.029 116.802 76.946 118.821 76.946 L 202.778 76.946 C 204.941 76.946 206.738 78.567 206.912 80.658 C 210.289 121.423 214.571 149.054 241.679 174.064 C 244.521 176.689 242.703 181.621 238.779 181.621 L 40.047 181.621 C 36.115 181.621 34.292 176.676 37.142 174.049 C 56.547 156.142 64.321 136.552 68.427 111.198 C 68.633 109.926 68.884 108.706 69.136 107.481 C 69.182 107.258 69.228 107.034 69.274 106.812 Z" style="fill-opacity: 0.2;" bx:origin="0.44507 0.659556"/>
</svg>