<?xml version="1.0" encoding="utf-8"?>
<svg width="577px" height="41px" viewBox="0 0 561.44 81.372" version="1.1" xmlns="http://www.w3.org/2000/svg">
  <title>logo</title>
  <g id="Page-1" stroke="none" stroke-width="1" fill="none" fill-rule="evenodd" style="" transform="matrix(0.823685, 0, 0, 0.823685, 60.789814, 5.086495)">
    <g id="logo" transform="translate(-34.000000, -34.000000)" fill="#000000">
      <path d="M 163.28 74.775 C 162.394 74.775 161.677 74.077 161.677 73.218 L 161.677 45.375 C 161.677 44.515 160.959 43.818 160.074 43.818 L 145.225 43.818 C 144.34 43.818 143.622 43.121 143.622 42.261 L 143.622 35.783 C 143.622 34.923 144.34 34.226 145.225 34.226 L 192.621 34.226 C 193.805 34.226 194.58 35.43 194.062 36.464 L 190.815 42.943 C 190.546 43.478 189.987 43.818 189.374 43.818 L 176.538 43.818 C 175.653 43.818 174.936 44.515 174.936 45.375 L 174.936 73.218 C 174.936 74.077 174.218 74.775 173.333 74.775 L 163.28 74.775 Z M 220.767 58.206 C 221.969 58.206 222.743 56.968 222.19 55.932 L 216.733 45.719 C 216.129 44.589 214.46 44.603 213.876 45.743 L 208.647 55.956 C 208.117 56.991 208.892 58.206 210.081 58.206 L 220.767 58.206 Z M 233.181 74.775 C 232.583 74.775 232.033 74.45 231.758 73.933 L 228.705 68.203 C 228.43 67.687 227.881 67.362 227.282 67.362 L 203.871 67.362 C 203.228 67.362 202.648 67.735 202.396 68.31 L 199.98 73.827 C 199.729 74.401 199.148 74.775 198.505 74.775 L 188.776 74.775 C 187.587 74.775 186.812 73.561 187.34 72.526 L 206.432 35.092 C 206.702 34.561 207.259 34.226 207.868 34.226 L 222.955 34.226 C 223.545 34.226 224.087 34.54 224.366 35.045 L 245.097 72.48 C 245.672 73.517 244.898 74.775 243.686 74.775 L 233.181 74.775 Z M 249.212 73.218 C 249.212 74.077 249.93 74.775 250.815 74.775 L 285.491 74.775 C 297.076 74.775 302.868 70.887 302.868 63.111 L 302.868 62.348 C 302.868 60.677 302.549 59.187 301.909 57.879 C 301.27 56.571 300.423 55.554 299.37 54.827 C 298.317 54.064 297.358 53.483 296.493 53.083 C 296.267 52.979 296.04 52.88 295.811 52.788 C 295.282 52.575 295.252 51.653 295.759 51.394 C 296.399 51.067 297.114 50.612 297.904 50.031 C 298.693 49.413 299.314 48.614 299.765 47.633 C 300.254 46.616 300.499 45.489 300.499 44.254 L 300.499 43.491 C 300.499 40.766 299.333 38.55 297.001 36.842 C 294.669 35.098 290.719 34.226 285.152 34.226 L 250.815 34.226 C 249.93 34.226 249.212 34.923 249.212 35.783 L 249.212 73.218 Z M 263.961 42.782 L 282.895 42.782 C 285.942 42.782 287.466 43.854 287.466 45.998 L 287.466 46.107 C 287.466 48.287 285.942 49.377 282.895 49.377 L 263.961 49.377 C 263.076 49.377 262.358 48.68 262.358 47.82 L 262.358 44.339 C 262.358 43.48 263.076 42.782 263.961 42.782 Z M 263.961 57.988 L 284.024 57.988 C 287.484 57.988 289.215 59.242 289.215 61.749 L 289.215 61.967 C 289.215 63.02 288.838 63.947 288.086 64.746 C 287.334 65.546 285.98 65.945 284.024 65.945 L 263.961 65.945 C 263.076 65.945 262.358 65.248 262.358 64.388 L 262.358 59.545 C 262.358 58.685 263.076 57.988 263.961 57.988 Z M 308.134 35.783 C 308.134 34.923 308.852 34.226 309.736 34.226 L 319.679 34.226 C 320.563 34.226 321.28 34.923 321.28 35.783 L 321.28 63.135 C 321.28 63.995 321.998 64.692 322.882 64.692 L 347.243 64.692 C 348.13 64.692 348.848 65.389 348.848 66.249 L 348.848 73.218 C 348.848 74.077 348.13 74.775 347.243 74.775 L 309.736 74.775 C 308.852 74.775 308.134 74.077 308.134 73.218 L 308.134 35.783 Z M 356.902 34.226 C 356.015 34.226 355.297 34.923 355.297 35.783 L 355.297 73.218 C 355.297 74.077 356.015 74.775 356.902 74.775 L 398.493 74.775 C 399.378 74.775 400.095 74.077 400.095 73.218 L 400.095 66.903 C 400.095 66.043 399.378 65.346 398.493 65.346 L 369.878 65.346 C 368.991 65.346 368.274 64.649 368.274 63.789 L 368.274 60.254 C 368.274 59.394 368.991 58.697 369.878 58.697 L 397.197 58.697 C 398.081 58.697 398.798 58 398.798 57.14 L 398.798 50.988 C 398.798 50.129 398.081 49.432 397.197 49.432 L 369.878 49.432 C 368.991 49.432 368.274 48.734 368.274 47.875 L 368.274 44.993 C 368.274 44.134 368.991 43.436 369.878 43.436 L 397.93 43.436 C 398.814 43.436 399.531 42.739 399.531 41.879 L 399.531 35.783 C 399.531 34.923 398.814 34.226 397.93 34.226 L 356.902 34.226 Z M 406.081 35.783 C 406.081 34.923 406.799 34.226 407.685 34.226 L 417.625 34.226 C 418.512 34.226 419.229 34.923 419.229 35.783 L 419.229 63.135 C 419.229 63.995 419.947 64.692 420.831 64.692 L 444.747 64.692 C 445.936 64.692 446.709 65.905 446.182 66.94 L 442.625 73.909 C 442.353 74.439 441.797 74.775 441.19 74.775 L 407.685 74.775 C 406.799 74.775 406.081 74.077 406.081 73.218 L 406.081 35.783 Z M 484.88 55.932 C 485.437 56.968 484.66 58.206 483.458 58.206 L 472.773 58.206 C 471.584 58.206 470.81 56.991 471.338 55.956 L 476.568 45.743 C 477.152 44.603 478.82 44.589 479.425 45.719 L 484.88 55.932 Z M 494.451 73.933 C 494.726 74.45 495.274 74.775 495.874 74.775 L 506.377 74.775 C 507.589 74.775 508.363 73.517 507.789 72.48 L 487.059 35.045 C 486.779 34.54 486.236 34.226 485.647 34.226 L 470.548 34.226 C 469.946 34.226 469.393 34.555 469.121 35.077 L 449.536 72.512 C 448.993 73.548 449.767 74.775 450.963 74.775 L 460.729 74.775 C 461.339 74.775 461.895 74.439 462.164 73.909 L 465.062 68.228 C 465.331 67.698 465.89 67.362 466.497 67.362 L 489.975 67.362 C 490.572 67.362 491.123 67.687 491.397 68.203 L 494.451 73.933 Z M 511.369 35.783 C 511.369 34.923 512.087 34.226 512.973 34.226 L 525.386 34.226 C 525.804 34.226 526.208 34.385 526.506 34.671 L 550.117 57.14 C 551.129 58.105 552.841 57.407 552.841 56.027 L 552.841 35.783 C 552.841 34.923 553.558 34.226 554.442 34.226 L 564.213 34.226 C 565.1 34.226 565.817 34.923 565.817 35.783 L 565.817 73.218 C 565.817 74.077 565.1 74.775 564.213 74.775 L 553.489 74.775 C 553.074 74.775 552.671 74.617 552.374 74.335 L 527.067 50.469 C 526.05 49.511 524.348 50.211 524.348 51.587 L 524.348 73.218 C 524.348 74.077 523.631 74.775 522.744 74.775 L 512.973 74.775 C 512.087 74.775 511.369 74.077 511.369 73.218 L 511.369 35.783 Z M 572.254 73.218 C 572.254 74.077 572.972 74.775 573.856 74.775 L 599.058 74.775 C 603.76 74.775 607.916 74.357 611.527 73.521 C 615.137 72.685 617.995 71.632 620.101 70.36 C 622.207 69.088 623.919 67.544 625.236 65.727 C 626.592 63.911 627.494 62.166 627.945 60.495 C 628.396 58.787 628.621 56.971 628.621 55.045 L 628.621 53.41 C 628.621 51.775 628.434 50.249 628.058 48.832 C 627.719 47.379 627.156 45.907 626.364 44.417 C 625.575 42.928 624.429 41.602 622.922 40.439 C 621.418 39.24 619.614 38.168 617.508 37.223 C 615.401 36.242 612.767 35.497 609.608 34.989 C 606.448 34.48 602.912 34.226 599.001 34.226 L 573.856 34.226 C 572.972 34.226 572.254 34.923 572.254 35.783 L 572.254 73.218 Z M 585.4 45.375 C 585.4 44.515 586.117 43.818 587.004 43.818 L 599.053 43.818 C 610.299 43.818 615.924 47.288 615.924 54.228 L 615.924 54.555 C 615.924 61.531 610.299 65.019 599.053 65.019 L 587.004 65.019 C 586.117 65.019 585.4 64.322 585.4 63.462 L 585.4 45.375 Z"/>
    </g>
  </g>
  <path d="M 24.561 24.14 C 24.934 22.32 26.555 20.935 28.465 20.935 L 44.269 20.935 C 46.382 20.935 47.322 19.986 48.577 18.143 L 55.545 5.418 C 56.2 4.22 57.483 3.472 58.881 3.472 L 117.039 3.472 C 118.537 3.472 119.783 4.594 119.903 6.041 C 122.243 34.25 125.209 53.374 143.989 70.682 C 145.954 72.497 144.697 75.911 141.977 75.911 L 4.314 75.911 C 1.59 75.911 0.328 72.489 2.302 70.671 C 15.744 58.276 21.13 44.721 23.973 27.177 C 24.117 26.295 24.29 25.451 24.464 24.602 C 24.498 24.448 24.527 24.294 24.561 24.14 Z" style=""/>
  <text style="font-family: Bahnschrift; font-size: 28.8px; font-weight: 700; white-space: pre;" transform="matrix(1.639552, 0, 0, 1.398934, -301.527069, -17.806759)" x="380.18" y="65.993">Dashboard</text>
</svg>